<svg width="9" height="13" viewBox="0 0 9 13" fill="none" xmlns="http://www.w3.org/2000/svg">
<path d="M7.5 12C7.41223 12 7.32601 11.9746 7.25 11.9263L4.5 10.1817L1.75 11.9263C1.67399 11.9746 1.58777 12 1.5 12C1.41224 12 1.32601 11.9746 1.25001 11.9263C1.174 11.878 1.11088 11.8086 1.06699 11.725C1.02311 11.6414 1 11.5465 1 11.45V2.65C1.0004 2.21253 1.15856 1.7931 1.43978 1.48376C1.721 1.17442 2.1023 1.00044 2.5 1H6.5C6.8977 1.00044 7.279 1.17442 7.56022 1.48376C7.84144 1.7931 7.9996 2.21253 8 2.65V11.45C8 11.5959 7.94732 11.7358 7.85355 11.8389C7.75979 11.9421 7.63261 12 7.5 12Z" stroke="#E3E3E3"/>
</svg>
